<svg width="62" height="62" viewBox="0 0 62 62" fill="none" xmlns="http://www.w3.org/2000/svg">
<g filter="url(#filter0_d_84_457)">
<circle cx="29" cy="28" r="24" fill="#52C54F"/>
</g>
<path fill-rule="evenodd" clip-rule="evenodd" d="M39.4668 24.8266L40.4668 25.6266C40.6557 25.7852 40.7312 26.0415 40.6584 26.2772C40.5857 26.5129 40.3789 26.682 40.1334 26.7066C39.9664 26.7251 39.7988 26.6772 39.6668 26.5733L39.4534 26.3866V35.9999C39.4539 36.4033 39.3722 36.8025 39.2134 37.1733C38.9006 37.9169 38.3062 38.5065 37.5601 38.8133C37.1865 38.9612 36.7886 39.0381 36.3868 39.0399H21.6001C21.1983 39.0381 20.8004 38.9612 20.4268 38.8133C20.0564 38.6658 19.7205 38.4434 19.4401 38.1599C19.1516 37.8783 18.9206 37.5432 18.7601 37.1733C18.6122 36.7997 18.5353 36.4017 18.5334 35.9999V26.3733L18.2934 26.5599C18.189 26.6567 18.0487 26.7051 17.9068 26.6933C17.7836 26.6904 17.6636 26.6535 17.5601 26.5866C17.4633 26.5072 17.3858 26.4069 17.3334 26.2933C17.3 26.1711 17.3 26.0421 17.3334 25.9199C17.3708 25.8013 17.44 25.6953 17.5334 25.6133L18.5468 24.8133L19.7734 23.8399L23.5334 20.8533L25.0668 19.6266L28.0401 17.2666C28.3095 17.0419 28.6493 16.9191 29.0001 16.9199C29.36 16.9351 29.7017 17.0823 29.9601 17.3333L33.0001 19.6266L34.4668 20.8533L38.2268 23.8399L39.4668 24.8266ZM32.1601 33.3333C32.5037 32.9746 32.6948 32.4967 32.6935 32L32.7201 28.24C32.7243 27.7428 32.5328 27.2638 32.1868 26.9067C31.8334 26.5533 31.3532 26.3564 30.8535 26.36H27.1601C26.6613 26.3608 26.1826 26.557 25.8268 26.9067C25.4722 27.2592 25.275 27.74 25.2801 28.24V32C25.2765 32.4997 25.4734 32.98 25.8268 33.3333C26.1806 33.6844 26.6618 33.8768 27.1601 33.8667H30.8268C31.3248 33.8753 31.8054 33.6831 32.1601 33.3333Z" fill="#F9FBFC"/>
<path d="M30.8534 27.6265H27.1601C26.9951 27.6264 26.837 27.6929 26.7216 27.8108C26.6062 27.9287 26.5432 28.0882 26.5468 28.2531V31.9998C26.5468 32.1625 26.6114 32.3185 26.7264 32.4335C26.8414 32.5485 26.9974 32.6131 27.1601 32.6131H30.8534C31.1892 32.6061 31.4597 32.3356 31.4668 31.9998V28.2531C31.4669 27.9122 31.1943 27.6337 30.8534 27.6265Z" fill="#F9FBFC"/>
<defs>
<filter id="filter0_d_84_457" x="0" y="0" width="62" height="62" filterUnits="userSpaceOnUse" color-interpolation-filters="sRGB">
<feFlood flood-opacity="0" result="BackgroundImageFix"/>
<feColorMatrix in="SourceAlpha" type="matrix" values="0 0 0 0 0 0 0 0 0 0 0 0 0 0 0 0 0 0 127 0" result="hardAlpha"/>
<feOffset dx="2" dy="3"/>
<feGaussianBlur stdDeviation="3.5"/>
<feComposite in2="hardAlpha" operator="out"/>
<feColorMatrix type="matrix" values="0 0 0 0 0 0 0 0 0 0 0 0 0 0 0 0 0 0 0.15 0"/>
<feBlend mode="normal" in2="BackgroundImageFix" result="effect1_dropShadow_84_457"/>
<feBlend mode="normal" in="SourceGraphic" in2="effect1_dropShadow_84_457" result="shape"/>
</filter>
</defs>
</svg>
