<svg width="62" height="62" viewBox="0 0 62 62" fill="none" xmlns="http://www.w3.org/2000/svg">
<g filter="url(#filter0_d_84_456)">
<circle cx="29" cy="28" r="24" fill="#FFD16A"/>
</g>
<path d="M36.1599 30.6934C36.0527 30.8033 35.9707 30.9353 35.9199 31.0801C35.8863 31.2338 35.8863 31.393 35.9199 31.5468L36.7065 36.7868C36.7767 37.1957 36.7305 37.6162 36.5732 38.0001C36.4135 38.388 36.1449 38.7215 35.7999 38.9601C35.4578 39.2005 35.0569 39.3433 34.6399 39.3734C34.2245 39.3905 33.8128 39.2887 33.4532 39.0801L29.1999 36.7201C29.0575 36.6399 28.8966 36.5986 28.7332 36.6001C28.5656 36.5987 28.4004 36.64 28.2532 36.7201L24.0265 39.0801C23.6582 39.2775 23.2442 39.3741 22.8265 39.3601C22.2013 39.3192 21.6223 39.0167 21.2315 38.527C20.8407 38.0372 20.6743 37.4055 20.7732 36.7868L21.6265 31.5468C21.6667 31.3938 21.6667 31.2331 21.6265 31.0801C21.5856 30.9338 21.5075 30.8006 21.3999 30.6934L17.6532 26.9201C17.3736 26.6249 17.176 26.2618 17.0799 25.8668C16.9734 25.4739 16.9734 25.0597 17.0799 24.6668C17.2274 24.2795 17.4761 23.9388 17.7999 23.6801C18.1126 23.4168 18.4901 23.2418 18.8932 23.1734L23.8132 22.4268C23.972 22.3982 24.1223 22.3344 24.2532 22.2401C24.383 22.1411 24.488 22.0133 24.5599 21.8668L26.6932 17.2801C26.87 16.898 27.1522 16.5742 27.5065 16.3468C28.2349 15.8844 29.1648 15.8844 29.8932 16.3468C30.2476 16.5742 30.5297 16.898 30.7065 17.2801L32.8532 21.8668C32.9209 22.016 33.0267 22.1447 33.1599 22.2401C33.2893 22.337 33.4403 22.401 33.5999 22.4268L38.5199 23.1734C38.923 23.2418 39.3004 23.4168 39.6132 23.6801C39.9194 23.9491 40.1494 24.294 40.2799 24.6801C40.3864 25.073 40.3864 25.4872 40.2799 25.8801C40.1838 26.2752 39.9862 26.6383 39.7065 26.9334L36.1599 30.6934Z" fill="#F9FBFC"/>
<defs>
<filter id="filter0_d_84_456" x="0" y="0" width="62" height="62" filterUnits="userSpaceOnUse" color-interpolation-filters="sRGB">
<feFlood flood-opacity="0" result="BackgroundImageFix"/>
<feColorMatrix in="SourceAlpha" type="matrix" values="0 0 0 0 0 0 0 0 0 0 0 0 0 0 0 0 0 0 127 0" result="hardAlpha"/>
<feOffset dx="2" dy="3"/>
<feGaussianBlur stdDeviation="3.5"/>
<feComposite in2="hardAlpha" operator="out"/>
<feColorMatrix type="matrix" values="0 0 0 0 0 0 0 0 0 0 0 0 0 0 0 0 0 0 0.2 0"/>
<feBlend mode="normal" in2="BackgroundImageFix" result="effect1_dropShadow_84_456"/>
<feBlend mode="normal" in="SourceGraphic" in2="effect1_dropShadow_84_456" result="shape"/>
</filter>
</defs>
</svg>
