<svg id="Layer_1" data-name="Layer 1" xmlns="http://www.w3.org/2000/svg" viewBox="0 0 2292.33 927.26"><defs><style>.cls-1{fill:#f9c144;}.cls-2{font-size:488.09px;fill:#0166ff;font-family:Rubik-Bold, Rubik;font-weight:700;}</style></defs><path class="cls-1" d="M438.83,612.38c-6.45-2.37-15.64-138.45,61-213.53a166,166,0,0,1,72.26-41.51c14.91-4.06,77.31-21,144.69,16.43C778.64,408.17,814,470.88,811.43,482c-4.77,20.37-36.16-13.28-147.79-47.89-91.48-28.37-163.6,28-195.16,85.68C440.65,570.65,442.48,613.71,438.83,612.38Z" transform="translate(-94.62 -59.33)"/><path class="cls-1" d="M387.33,742.22s-37.89-20.73-29.09-129.89,92.62-223.85,92.62-223.85-39.68,135.07-41.63,167.28C419.13,726.09,402.65,734.77,387.33,742.22Z" transform="translate(-94.62 -59.33)"/><path class="cls-1" d="M556.23,292.21s-2.93-94.32-8.91-115.28-11-84.24-18.69-99-12.25-16-17.87-18.26-15.9,7.73-18.9,24.07,16.06,81.48,21,95.64S556.23,292.21,556.23,292.21Z" transform="translate(-94.62 -59.33)"/><path class="cls-1" d="M440.16,358.29S417.87,306,409.93,295.57s-24.58-44.87-32.15-51.46-10.36-6.26-14-6.33-7.22,7.82-5.33,17.64,26.84,42.2,32.71,49.07S440.16,358.29,440.16,358.29Z" transform="translate(-94.62 -59.33)"/><path class="cls-1" d="M375.39,370.3s-29.7-30.63-38.09-35.81S308,309.67,300.91,307.1s-9-1.6-11.54-.66-2.95,7.42,1,13.8,30.18,22.33,36.14,25.57S375.39,370.3,375.39,370.3Z" transform="translate(-94.62 -59.33)"/><path class="cls-1" d="M332.83,522.91S279.56,481.73,265.9,476s-50.43-31.49-61.25-33.31-13,.5-16.22,3-1.14,13.62,6.89,23,50.64,27,60.17,30.32S332.83,522.91,332.83,522.91Z" transform="translate(-94.62 -59.33)"/><path class="cls-1" d="M329,628.3S227.42,651,207.1,661.54s-87.2,28.87-100,39.94-12.25,16-12.42,22.26,15.06,14.8,34.12,14.49,82-33.57,95.42-41.61S329,628.3,329,628.3Z" transform="translate(-94.62 -59.33)"/><path class="cls-1" d="M721,307.28s18.41-30.69,20.81-38.6,13.79-29.12,14.35-35.42-.64-7.6-1.95-9.49-6.66-.79-11,3.8-11.6,29.29-12.93,34.82S721,307.28,721,307.28Z" transform="translate(-94.62 -59.33)"/><text class="cls-2" transform="translate(362.95 805.24) scale(0.76 1)">AL AMANA</text></svg>